<?xml version="1.0" encoding="UTF-8" standalone="no"?>
<!DOCTYPE svg PUBLIC "-//W3C//DTD SVG 1.1//EN" "http://www.w3.org/Graphics/SVG/1.1/DTD/svg11.dtd">
<svg width="100%" height="100%" viewBox="0 0 90 90" version="1.1" xmlns="http://www.w3.org/2000/svg" xmlns:xlink="http://www.w3.org/1999/xlink" xml:space="preserve" xmlns:serif="http://www.serif.com/" style="fill-rule:evenodd;clip-rule:evenodd;stroke-linejoin:round;stroke-miterlimit:2;">
    <g transform="matrix(0.708901,0,0,0.691662,51.8619,33.9651)">
        <path d="M0,7.201C-0.939,8.119 -1.367,9.44 -1.146,10.734L0.433,19.973L-7.813,15.621C-8.398,15.313 -9.039,15.159 -9.681,15.159C-10.322,15.159 -10.963,15.313 -11.548,15.621L-19.794,19.973L-18.216,10.734C-17.994,9.44 -18.422,8.119 -19.361,7.201L-26.062,0.645L-16.815,-0.704C-15.512,-0.894 -14.385,-1.714 -13.803,-2.897L-9.681,-11.28L-5.559,-2.897C-4.977,-1.714 -3.85,-0.894 -2.546,-0.704L6.701,0.645L0,7.201ZM7.093,11.453L18.071,0.712C19.159,-0.352 19.549,-1.94 19.078,-3.386C18.606,-4.832 17.356,-5.886 15.852,-6.105L0.691,-8.316L-6.091,-22.11C-6.764,-23.478 -8.156,-24.344 -9.681,-24.344C-11.205,-24.344 -12.598,-23.478 -13.271,-22.11L-20.053,-8.316L-35.213,-6.105C-36.718,-5.886 -37.968,-4.832 -38.439,-3.386C-38.91,-1.94 -38.521,-0.352 -37.433,0.712L-26.454,11.453L-29.046,26.623C-29.303,28.125 -28.685,29.642 -27.451,30.536C-26.218,31.43 -24.583,31.545 -23.236,30.835L-9.681,23.682L3.875,30.835C4.462,31.144 5.104,31.297 5.742,31.297C6.569,31.297 7.394,31.04 8.09,30.536C9.323,29.642 9.941,28.125 9.685,26.623L7.093,11.453Z" style="fill:rgb(167,31,35);fill-rule:nonzero;"/>
    </g>
    <g transform="matrix(0.708901,0,0,0.691662,67.6789,28.8231)">
        <path d="M0,46.777L11.826,58.604L7.222,58.604C5.013,58.604 3.222,60.395 3.222,62.604L3.222,67.207L-10.012,53.972C-6.358,52.019 -2.996,49.591 0,46.777M-70.773,12.693C-70.773,-8.69 -53.376,-26.087 -31.993,-26.087C-10.609,-26.087 6.788,-8.69 6.788,12.693C6.788,34.076 -10.609,51.473 -31.993,51.473C-53.376,51.473 -70.773,34.076 -70.773,12.693M-67.208,67.207L-67.208,62.604C-67.208,60.395 -69,58.604 -71.208,58.604L-75.812,58.604L-63.985,46.777C-60.989,49.591 -57.627,52.019 -53.974,53.972L-67.208,67.207ZM25.177,64.134C25.232,64 25.264,63.861 25.304,63.723C25.337,63.611 25.381,63.503 25.404,63.387C25.456,63.129 25.483,62.866 25.483,62.604C25.483,62.602 25.482,62.601 25.482,62.6C25.482,62.339 25.455,62.078 25.404,61.82C25.38,61.702 25.336,61.592 25.302,61.477C25.263,61.342 25.231,61.205 25.177,61.074C25.121,60.939 25.045,60.817 24.975,60.69C24.919,60.589 24.875,60.483 24.81,60.385C24.663,60.166 24.497,59.961 24.311,59.775L5.358,40.822C11.273,32.987 14.788,23.244 14.788,12.693C14.788,-13.102 -6.198,-34.087 -31.993,-34.087C-57.788,-34.087 -78.773,-13.102 -78.773,12.693C-78.773,23.244 -75.258,32.987 -69.343,40.822L-88.296,59.775C-88.482,59.961 -88.648,60.166 -88.795,60.385C-88.861,60.484 -88.906,60.591 -88.962,60.694C-89.031,60.819 -89.107,60.94 -89.162,61.074C-89.217,61.206 -89.249,61.345 -89.289,61.482C-89.322,61.595 -89.366,61.703 -89.389,61.82C-89.492,62.337 -89.492,62.87 -89.389,63.387C-89.366,63.504 -89.322,63.612 -89.289,63.725C-89.249,63.862 -89.217,64.001 -89.162,64.134C-89.107,64.267 -89.031,64.388 -88.962,64.513C-88.906,64.616 -88.861,64.723 -88.795,64.822C-88.648,65.041 -88.482,65.246 -88.296,65.432C-88.295,65.434 -88.293,65.435 -88.291,65.437C-88.107,65.62 -87.904,65.785 -87.688,65.93C-87.585,65.998 -87.476,66.045 -87.369,66.103C-87.247,66.169 -87.129,66.244 -86.999,66.298C-86.865,66.353 -86.726,66.385 -86.588,66.425C-86.476,66.458 -86.368,66.502 -86.251,66.525C-85.993,66.576 -85.731,66.604 -85.468,66.604L-75.208,66.604L-75.208,76.864C-75.208,77.127 -75.181,77.389 -75.129,77.647C-75.106,77.765 -75.063,77.873 -75.029,77.986C-74.989,78.123 -74.958,78.261 -74.902,78.394C-74.847,78.527 -74.771,78.648 -74.703,78.774C-74.646,78.877 -74.601,78.984 -74.535,79.082C-74.389,79.302 -74.223,79.507 -74.037,79.692L-74.037,79.693C-74.035,79.694 -74.033,79.695 -74.031,79.697C-73.847,79.88 -73.645,80.045 -73.428,80.19C-73.326,80.258 -73.216,80.305 -73.109,80.363C-72.987,80.43 -72.869,80.504 -72.739,80.558C-72.605,80.613 -72.466,80.645 -72.329,80.685C-72.216,80.718 -72.108,80.762 -71.992,80.785C-71.733,80.836 -71.471,80.864 -71.208,80.864C-70.946,80.864 -70.684,80.836 -70.425,80.785C-70.309,80.762 -70.201,80.718 -70.088,80.685C-69.951,80.645 -69.812,80.613 -69.678,80.558C-69.547,80.504 -69.43,80.429 -69.307,80.362C-69.201,80.305 -69.091,80.258 -68.989,80.19C-68.772,80.045 -68.57,79.88 -68.386,79.697C-68.384,79.695 -68.382,79.694 -68.38,79.693L-46.012,57.325C-41.584,58.719 -36.875,59.473 -31.993,59.473C-27.11,59.473 -22.401,58.719 -17.973,57.325L4.394,79.692L4.394,79.693C4.396,79.694 4.397,79.695 4.399,79.697C4.583,79.881 4.787,80.046 5.004,80.191C5.102,80.256 5.207,80.3 5.309,80.356C5.436,80.426 5.558,80.502 5.692,80.558C5.824,80.612 5.961,80.644 6.097,80.684C6.211,80.717 6.321,80.761 6.439,80.785C6.697,80.836 6.959,80.864 7.222,80.864C7.485,80.864 7.747,80.836 8.005,80.785C8.122,80.762 8.23,80.718 8.343,80.685C8.48,80.645 8.619,80.613 8.752,80.558C8.883,80.504 9.001,80.429 9.124,80.362C9.23,80.305 9.34,80.258 9.441,80.19C9.658,80.045 9.861,79.88 10.045,79.697C10.047,79.695 10.049,79.694 10.05,79.693L10.05,79.692C10.236,79.507 10.402,79.302 10.548,79.083C10.616,78.982 10.662,78.874 10.719,78.769C10.787,78.645 10.861,78.526 10.916,78.394C10.971,78.261 11.003,78.121 11.043,77.983C11.077,77.871 11.12,77.764 11.143,77.648C11.195,77.389 11.222,77.127 11.222,76.864L11.222,66.604L21.483,66.604C21.746,66.604 22.008,66.576 22.266,66.525C22.383,66.502 22.491,66.458 22.604,66.425C22.741,66.385 22.88,66.353 23.013,66.298C23.144,66.243 23.262,66.169 23.385,66.102C23.491,66.044 23.601,65.998 23.702,65.93C23.919,65.785 24.122,65.62 24.306,65.437C24.308,65.435 24.31,65.434 24.311,65.432C24.497,65.246 24.663,65.042 24.809,64.823C24.876,64.722 24.922,64.613 24.979,64.508C25.047,64.385 25.122,64.266 25.177,64.134" style="fill:rgb(167,31,35);fill-rule:nonzero;"/>
    </g>
</svg>
