<?xml version="1.0" encoding="UTF-8" standalone="no"?>
<!DOCTYPE svg PUBLIC "-//W3C//DTD SVG 1.1//EN" "http://www.w3.org/Graphics/SVG/1.1/DTD/svg11.dtd">
<svg width="100%" height="100%" viewBox="0 0 88 88" version="1.1" xmlns="http://www.w3.org/2000/svg" xmlns:xlink="http://www.w3.org/1999/xlink" xml:space="preserve" xmlns:serif="http://www.serif.com/" style="fill-rule:evenodd;clip-rule:evenodd;stroke-linejoin:round;stroke-miterlimit:2;">
    <g transform="matrix(0.325904,0,0,0.325904,15.7689,17.2071)">
        <g id="Layer-1" serif:id="Layer 1">
            <g transform="matrix(1,0,0,1,68.8346,124.414)">
                <path d="M0,-33.527C-0.687,-34.541 -0.805,-35.816 -0.316,-36.939L3.109,-44.819C3.69,-46.153 5.007,-46.956 6.384,-46.956C6.844,-46.956 7.31,-46.866 7.758,-46.677L17.074,-42.741C19.649,-41.654 22.528,-41.538 25.179,-42.408C27.065,-43.027 29.111,-42.546 30.523,-41.155L41.145,-30.686C42.625,-29.227 44.474,-28.193 46.492,-27.695L48.69,-27.153C50.444,-26.721 51.596,-25.044 51.369,-23.251L50.039,-12.765C49.888,-11.576 49.156,-10.55 48.082,-10.021L42.946,-7.49C40.975,-6.518 39.328,-5.011 38.184,-3.132L32.712,5.857C32.271,6.58 31.587,7.124 30.783,7.388L28.015,8.297C25.403,9.156 23.179,10.921 21.75,13.268C20.801,14.828 19.255,14.96 18.673,14.976C18.063,14.97 16.548,14.784 15.632,13.203L12.54,7.869C12.151,7.2 11.991,6.408 12.089,5.639L13.986,-9.318C14.436,-12.868 13.183,-16.489 10.634,-19.002L8.453,-21.152C8.286,-21.316 8.136,-21.496 8.005,-21.691L0,-33.527ZM4.153,4.63C3.835,7.129 4.356,9.705 5.619,11.883L8.711,17.215C10.776,20.778 14.469,22.932 18.587,22.976L18.716,22.976C22.782,22.976 26.464,20.91 28.584,17.429C28.584,17.428 28.584,17.427 28.585,17.427C29.023,16.705 29.708,16.162 30.513,15.898L33.281,14.988C35.892,14.13 38.116,12.365 39.546,10.016L45.017,1.028C45.369,0.449 45.877,-0.015 46.484,-0.315L51.619,-2.845C55.109,-4.566 57.485,-7.898 57.975,-11.758L59.305,-22.245C60.043,-28.068 56.303,-33.517 50.604,-34.921L48.407,-35.463C47.786,-35.616 47.216,-35.934 46.76,-36.383L36.14,-46.852C32.584,-50.358 27.427,-51.568 22.682,-50.008C21.864,-49.74 20.978,-49.777 20.187,-50.111L10.871,-54.047C5.058,-56.503 -1.712,-53.792 -4.227,-48.008L-7.652,-40.129C-9.238,-36.482 -8.854,-32.338 -6.627,-29.045L1.377,-17.211C1.803,-16.58 2.295,-15.988 2.838,-15.453L5.017,-13.305C5.802,-12.531 6.187,-11.416 6.05,-10.323L4.153,4.63Z" style="fill:white;fill-rule:nonzero;"/>
            </g>
            <g transform="matrix(1,0,0,1,145.78,75.2516)">
                <path d="M0,13.687C-0.417,13.256 -0.654,12.688 -0.667,12.089L-0.888,1.936C-0.993,-2.959 -4.566,-7.155 -9.384,-8.039L-20.332,-10.048C-20.91,-10.154 -21.425,-10.468 -21.782,-10.934L-26.441,-16.991C-29.054,-20.385 -33.399,-21.817 -37.518,-20.637L-43.84,-18.826C-44.572,-18.616 -45.365,-18.772 -45.963,-19.245L-50.909,-23.156C-51.803,-23.863 -51.831,-24.819 -51.802,-25.198C-51.772,-25.577 -51.598,-26.518 -50.604,-27.079C-50.588,-27.088 -50.57,-27.099 -50.552,-27.109C-48.63,-28.209 -47.086,-29.927 -46.198,-31.955L-42.562,-40.27C-42.185,-41.13 -41.335,-41.687 -40.396,-41.69C-39.978,-41.691 -39.561,-41.758 -39.162,-41.889L-14.122,-50.099C6.023,-37.563 19.468,-15.229 19.468,10.195C19.468,17.412 18.378,24.377 16.367,30.944L0,13.687ZM-11.107,-57.63C-11.38,-57.844 -11.685,-58.009 -12.003,-58.146C-23.632,-64.895 -37.12,-68.78 -51.507,-68.78C-58.865,-68.78 -66.155,-67.767 -73.187,-65.765C-75.03,-65.233 -76.698,-64.695 -78.284,-64.121C-80.36,-63.368 -81.435,-61.074 -80.682,-58.997C-79.929,-56.919 -77.635,-55.849 -75.558,-56.599C-74.142,-57.113 -72.641,-57.597 -70.982,-58.075C-64.677,-59.87 -58.124,-60.78 -51.507,-60.78C-41.784,-60.78 -32.513,-58.811 -24.067,-55.257L-41.127,-49.664C-44.949,-49.392 -48.339,-47.022 -49.891,-43.477L-53.528,-35.161C-53.732,-34.694 -54.089,-34.299 -54.533,-34.048C-54.551,-34.039 -54.568,-34.028 -54.587,-34.018C-57.573,-32.31 -59.513,-29.248 -59.778,-25.815C-60.045,-22.366 -58.584,-19.026 -55.87,-16.88L-50.924,-12.97C-48.311,-10.903 -44.839,-10.216 -41.637,-11.135L-35.313,-12.946C-34.374,-13.218 -33.38,-12.889 -32.783,-12.113L-28.124,-6.057C-26.558,-4.02 -24.303,-2.643 -21.775,-2.18L-10.828,-0.171C-9.727,0.031 -8.91,0.99 -8.886,2.109L-8.665,12.264C-8.607,14.885 -7.572,17.366 -5.777,19.221L13.222,39.253C2.097,63.936 -22.722,81.17 -51.507,81.17C-90.627,81.17 -122.455,49.357 -122.481,10.243C-121.166,10.456 -119.605,10.61 -117.829,10.61C-111.64,10.61 -102.868,8.748 -93.03,1.061C-81.352,-8.064 -75.638,-22.086 -77.355,-37.408C-79.186,-53.744 -89.169,-68.443 -102.788,-74.856C-104.122,-75.483 -105.698,-75.367 -106.882,-74.49C-108.065,-73.611 -108.676,-72.194 -108.46,-70.735C-108.426,-70.401 -107.755,-62.457 -119.954,-53.777C-120.927,-53.086 -121.957,-52.381 -123.024,-51.651C-135.258,-43.282 -153.744,-30.635 -142.061,0.45C-141.284,2.518 -138.981,3.567 -136.909,2.787C-134.841,2.01 -133.795,-0.296 -134.572,-2.364C-144.048,-27.576 -130.479,-36.858 -118.507,-45.048C-117.398,-45.807 -116.327,-46.54 -115.317,-47.259C-106.439,-53.574 -102.815,-60.068 -101.373,-64.793C-92.719,-58.657 -86.604,-48.103 -85.306,-36.518C-83.904,-24.018 -88.516,-12.619 -97.956,-5.243C-109.236,3.57 -118.241,3.027 -122.015,2.216C-121.822,0.509 -121.585,-1.191 -121.269,-2.868C-119.756,-11.028 -116.837,-18.795 -112.592,-25.955C-111.465,-27.855 -112.092,-30.309 -113.992,-31.436C-115.892,-32.564 -118.347,-31.936 -119.473,-30.035C-124.199,-22.064 -127.45,-13.414 -129.132,-4.339C-130.028,0.406 -130.482,5.296 -130.482,10.195C-130.482,53.742 -95.054,89.17 -51.507,89.17C-7.96,89.17 27.468,53.742 27.468,10.195C27.468,-18.597 11.974,-43.829 -11.107,-57.63" style="fill:white;fill-rule:nonzero;"/>
            </g>
        </g>
    </g>
</svg>
