<?xml version="1.0" encoding="UTF-8" standalone="no"?>
<!DOCTYPE svg PUBLIC "-//W3C//DTD SVG 1.1//EN" "http://www.w3.org/Graphics/SVG/1.1/DTD/svg11.dtd">
<svg width="100%" height="100%" viewBox="0 0 88 88" version="1.1" xmlns="http://www.w3.org/2000/svg" xmlns:xlink="http://www.w3.org/1999/xlink" xml:space="preserve" xmlns:serif="http://www.serif.com/" style="fill-rule:evenodd;clip-rule:evenodd;stroke-linejoin:round;stroke-miterlimit:2;">
    <g transform="matrix(0.321225,0,0,0.321225,20.1325,22.0028)">
        <g transform="matrix(1,0,0,1,139.806,90.2799)">
            <path d="M0,-43.818C-3.87,-35.536 -12.085,-30.508 -21.986,-30.358C-22.012,-30.357 -22.037,-30.356 -22.062,-30.356C-22.099,-30.356 -22.136,-30.358 -22.172,-30.361C-22.18,-30.361 -22.187,-30.362 -22.195,-30.363C-31.931,-31.229 -38.983,-37.219 -40.601,-45.997C-41.727,-52.099 -39.724,-57.722 -35.244,-61.037C-30.174,-64.789 -22.089,-65.648 -17.866,-60.501C-15.87,-58.066 -15.377,-54.064 -16.744,-51.389C-17.771,-49.38 -19.751,-48.314 -22.102,-48.457C-22.475,-48.479 -22.823,-48.651 -23.069,-48.932C-23.174,-49.05 -23.256,-49.185 -23.314,-49.33C-23.486,-49.494 -23.776,-49.741 -23.967,-49.905C-24.52,-50.377 -24.871,-50.686 -25.102,-50.992C-25.641,-51.713 -26.292,-52.131 -27.038,-52.239C-27.964,-52.371 -28.896,-52.005 -29.524,-51.255C-30.152,-50.505 -30.352,-49.526 -30.058,-48.636C-28.893,-45.12 -24.417,-42.901 -20.938,-42.863C-20.896,-42.862 -20.854,-42.862 -20.812,-42.862C-16.912,-42.862 -14.495,-44.937 -13.149,-46.69C-10.626,-49.977 -9.713,-54.986 -10.878,-59.152C-13.43,-68.276 -23.382,-71.165 -31.445,-69.249C-40.592,-67.076 -47.113,-58.464 -46.951,-48.771C-46.944,-48.396 -47.089,-48.034 -47.353,-47.766C-47.615,-47.499 -47.976,-47.347 -48.351,-47.347L-82.579,-47.347C-82.952,-47.347 -83.311,-47.497 -83.573,-47.761C-83.836,-48.027 -83.982,-48.385 -83.979,-48.758C-83.919,-56.268 -87.474,-62.97 -93.488,-66.689C-97.188,-68.978 -101.771,-70.116 -106.043,-69.82C-109.278,-69.594 -113.856,-68.46 -117.292,-64.334C-120.188,-60.857 -121.283,-55.703 -120.083,-51.203C-119.095,-47.499 -116.684,-44.767 -113.293,-43.509C-109.705,-42.18 -105.81,-42.989 -103.123,-45.625C-101.905,-46.817 -100.537,-48.38 -100.756,-49.897C-100.889,-50.826 -101.502,-51.612 -102.396,-52.003C-103.295,-52.395 -104.29,-52.308 -105.062,-51.774C-105.428,-51.52 -105.727,-51.121 -106.072,-50.658L-106.188,-50.502C-106.408,-50.206 -106.736,-49.945 -107.249,-49.55C-107.362,-49.464 -107.526,-49.339 -107.647,-49.239C-107.701,-49.129 -107.77,-49.026 -107.853,-48.932C-108.099,-48.651 -108.447,-48.479 -108.82,-48.457C-111.175,-48.313 -113.149,-49.379 -114.177,-51.388C-115.545,-54.062 -115.053,-58.064 -113.058,-60.5C-108.834,-65.653 -100.747,-64.789 -95.677,-61.037C-91.197,-57.721 -89.195,-52.099 -90.321,-45.997C-91.936,-37.231 -98.97,-31.247 -108.683,-30.368C-108.744,-30.36 -108.814,-30.348 -108.869,-30.358C-121.761,-30.524 -131.657,-39.288 -132.935,-51.671C-133.672,-61.912 -129.739,-71.272 -122.42,-76.752C-112.577,-84.12 -99.486,-83.786 -87.942,-83.497C-85.639,-83.438 -83.461,-83.383 -81.316,-83.383L-81.27,-83.383C-67.808,-83.386 -54.35,-83.385 -40.895,-83.38L-38.606,-83.383C-29.525,-83.414 -20.133,-83.441 -11.644,-78.751C-4.845,-75.125 0.183,-68.204 1.458,-60.701C2.63,-53.815 2.166,-48.45 0,-43.818M8.67,-57.758C8.669,-57.77 8.669,-57.782 8.668,-57.794C8.667,-57.81 8.667,-57.826 8.666,-57.841C8.124,-68.716 1.467,-79.201 -8.314,-84.604C-18.251,-90.126 -29.059,-90.133 -40.499,-90.12L-79.587,-90.119C-81.903,-90.119 -84.243,-90.16 -86.594,-90.2C-95.014,-90.342 -103.72,-90.496 -111.843,-88.723C-125.107,-85.828 -135.088,-76.542 -138.539,-63.881C-140.401,-57.048 -140.206,-49.814 -137.988,-43.509C-133.861,-31.786 -122.313,-23.992 -109.151,-23.992C-108.981,-23.992 -108.813,-23.994 -108.644,-23.996C-106.832,-24.024 -104.961,-24.281 -103.083,-24.758C-102.664,-24.866 -102.219,-24.772 -101.878,-24.507C-101.537,-24.242 -101.337,-23.835 -101.337,-23.402L-101.337,43.312C-101.337,45.168 -99.826,46.678 -97.97,46.678C-96.113,46.678 -94.603,45.168 -94.603,43.312L-94.603,-28.003C-94.603,-28.441 -94.396,-28.854 -94.048,-29.119C-90.363,-31.909 -87.515,-35.584 -85.808,-39.744C-85.593,-40.269 -85.081,-40.613 -84.513,-40.613L-46.346,-40.613C-45.779,-40.613 -45.269,-40.271 -45.052,-39.749C-43.358,-35.659 -40.536,-32.073 -36.889,-29.38C-36.531,-29.116 -36.32,-28.698 -36.32,-28.254L-36.32,43.312C-36.32,45.168 -34.811,46.678 -32.954,46.678C-31.098,46.678 -29.587,45.168 -29.587,43.312L-29.587,-23.651C-29.587,-24.087 -29.384,-24.497 -29.039,-24.761C-28.693,-25.028 -28.243,-25.118 -27.824,-25.004C-23.181,-23.757 -18.249,-23.717 -13.566,-24.885C-4.425,-27.168 3.379,-34.03 6.8,-42.794C8.475,-47.084 9.086,-51.976 8.671,-57.75C8.671,-57.753 8.67,-57.756 8.67,-57.758" style="fill:white;fill-rule:nonzero;"/>
        </g>
        <g transform="matrix(1,0,0,1,83.8084,30.5604)">
            <path d="M0,-5.867L-19.362,-5.867C-20.98,-5.867 -22.296,-4.552 -22.296,-2.933C-22.296,-1.315 -20.98,0 -19.362,0L0,0C1.617,0 2.933,-1.315 2.933,-2.933C2.933,-4.552 1.617,-5.867 0,-5.867" style="fill:white;fill-rule:nonzero;"/>
        </g>
        <g transform="matrix(1,0,0,1,85.1795,136.958)">
            <path d="M0,-73.755C-1.856,-73.755 -3.366,-72.244 -3.366,-70.388L-3.366,-3.366C-3.366,-1.51 -1.856,0 0,0C1.857,0 3.368,-1.51 3.368,-3.366L3.368,-70.388C3.368,-72.244 1.857,-73.755 0,-73.755" style="fill:white;fill-rule:nonzero;"/>
        </g>
        <g transform="matrix(1,0,0,1,63.5096,136.958)">
            <path d="M0,-73.755C-1.857,-73.755 -3.368,-72.244 -3.368,-70.388L-3.368,-3.366C-3.368,-1.51 -1.857,0 0,0C1.856,0 3.367,-1.51 3.367,-3.366L3.367,-70.388C3.367,-72.244 1.856,-73.755 0,-73.755" style="fill:white;fill-rule:nonzero;"/>
        </g>
    </g>
</svg>
