<?xml version="1.0" encoding="UTF-8" standalone="no"?>
<!DOCTYPE svg PUBLIC "-//W3C//DTD SVG 1.1//EN" "http://www.w3.org/Graphics/SVG/1.1/DTD/svg11.dtd">
<svg width="100%" height="100%" viewBox="0 0 65 65" version="1.1" xmlns="http://www.w3.org/2000/svg" xmlns:xlink="http://www.w3.org/1999/xlink" xml:space="preserve" xmlns:serif="http://www.serif.com/" style="fill-rule:evenodd;clip-rule:evenodd;stroke-linejoin:round;stroke-miterlimit:2;">
    <g transform="matrix(0.0398097,0,0,0.0398097,6.62254,9.69877)">
        <g id="Layer-1" serif:id="Layer 1">
            <g transform="matrix(1,0,0,1,655.892,197.141)">
                <path d="M0,751.23C-16.567,751.23 -30,764.648 -30,781.23L-30,888.369L-177.803,888.369L-177.803,781.23C-177.803,780.443 -178.191,779.783 -178.25,779.013C-178.409,776.912 -178.881,774.984 -179.465,772.998C-179.995,771.185 -180.496,769.451 -181.339,767.799C-182.208,766.087 -183.322,764.626 -184.503,763.108C-185.698,761.572 -186.855,760.12 -188.322,758.844C-189.712,757.63 -191.261,756.725 -192.88,755.773C-194.661,754.724 -196.41,753.792 -198.404,753.125C-199.144,752.876 -199.693,752.334 -200.464,752.138C-269.546,734.707 -332.344,698.554 -382.09,647.636C-382.637,647.076 -383.373,646.876 -383.954,646.369C-385.534,644.978 -387.224,643.938 -389.031,642.921C-390.645,642.013 -392.181,641.132 -393.904,640.546C-395.815,639.887 -397.727,639.611 -399.732,639.347C-401.536,639.115 -403.255,638.884 -405.07,638.979C-407.04,639.076 -408.904,639.536 -410.85,640.032C-412.76,640.515 -414.569,641.043 -416.373,641.907C-417.09,642.251 -417.88,642.248 -418.579,642.656L-511.025,696.152L-584.927,568.183L-492.422,514.599C-491.776,514.226 -491.418,513.588 -490.811,513.175C-489.077,511.997 -487.665,510.618 -486.235,509.132C-484.922,507.769 -483.644,506.48 -482.626,504.922C-481.571,503.314 -480.879,501.608 -480.148,499.828C-479.416,498.037 -478.709,496.329 -478.334,494.432C-477.969,492.617 -477.977,490.812 -477.957,488.93C-477.933,486.859 -477.971,484.872 -478.385,482.807C-478.528,482.089 -478.337,481.391 -478.535,480.673C-488.013,446.25 -492.817,410.918 -492.817,375.615C-492.817,340.312 -488.013,304.98 -478.535,270.556C-478.337,269.838 -478.528,269.139 -478.385,268.421C-477.971,266.356 -477.933,264.371 -477.957,262.3C-477.977,260.418 -477.969,258.614 -478.334,256.799C-478.709,254.903 -479.416,253.192 -480.148,251.4C-480.879,249.622 -481.569,247.917 -482.624,246.309C-483.644,244.749 -484.922,243.458 -486.238,242.094C-487.665,240.609 -489.077,239.231 -490.809,238.055C-491.417,237.641 -491.774,237.004 -492.422,236.63L-584.927,183.046L-511.025,55.078L-418.579,108.574C-417.933,108.951 -417.204,108.942 -416.541,109.266C-414.653,110.187 -412.744,110.738 -410.739,111.238C-408.917,111.696 -407.179,112.166 -405.335,112.274C-404.729,112.311 -404.156,112.617 -403.55,112.617C-402.325,112.617 -401.169,112.055 -399.952,111.906C-397.896,111.652 -395.931,111.395 -393.973,110.727C-392.291,110.158 -390.8,109.284 -389.22,108.411C-387.33,107.365 -385.567,106.285 -383.921,104.829C-383.353,104.329 -382.626,104.143 -382.09,103.593C-332.344,52.675 -269.546,16.523 -200.464,-0.909C-199.691,-1.105 -199.14,-1.648 -198.398,-1.899C-196.41,-2.566 -194.665,-3.492 -192.887,-4.54C-191.267,-5.492 -189.714,-6.398 -188.322,-7.616C-186.855,-8.892 -185.7,-10.34 -184.504,-11.877C-183.323,-13.396 -182.21,-14.858 -181.339,-16.572C-180.496,-18.223 -179.993,-19.955 -179.465,-21.766C-178.881,-23.755 -178.409,-25.683 -178.25,-27.783C-178.191,-28.554 -177.803,-29.213 -177.803,-30L-177.803,-137.139L-30,-137.139L-30,-30C-30,-29.213 -29.612,-28.554 -29.553,-27.783C-29.394,-25.683 -28.922,-23.755 -28.337,-21.766C-27.81,-19.955 -27.307,-18.223 -26.464,-16.572C-25.593,-14.858 -24.479,-13.396 -23.298,-11.877C-22.103,-10.34 -20.947,-8.892 -19.481,-7.616C-18.089,-6.398 -16.536,-5.492 -14.916,-4.54C-13.138,-3.492 -11.393,-2.566 -9.404,-1.899C-8.663,-1.648 -8.112,-1.105 -7.339,-0.909C61.728,16.523 124.541,52.675 174.258,103.564C180.146,109.599 187.939,112.617 195.732,112.617C203.291,112.617 210.85,109.775 216.68,104.091C228.545,92.49 228.779,73.505 217.207,61.669C165.231,8.448 100.854,-30.601 30,-52.532L30,-167.139C30,-183.721 16.567,-197.139 0,-197.139L-207.803,-197.139C-224.37,-197.139 -237.803,-183.721 -237.803,-167.139L-237.803,-52.532C-301.166,-32.919 -359.24,0.49 -407.996,45.388L-506.968,-11.895C-513.867,-15.879 -522.1,-17.081 -529.746,-14.912C-537.437,-12.862 -543.999,-7.823 -547.983,-0.938L-651.87,179.004C-660.147,193.33 -655.239,211.669 -640.913,219.96L-541.822,277.344C-549,309.728 -552.817,342.656 -552.817,375.615C-552.817,408.574 -549,441.502 -541.822,473.886L-640.913,531.269C-655.239,539.56 -660.147,557.9 -651.87,572.226L-547.983,752.167C-543.999,759.052 -537.437,764.091 -529.746,766.142C-527.197,766.845 -524.59,767.168 -521.997,767.168C-516.768,767.168 -511.582,765.791 -506.968,763.125L-407.996,705.842C-359.24,750.739 -301.166,784.149 -237.803,803.761L-237.803,918.369C-237.803,934.951 -224.37,948.369 -207.803,948.369L0,948.369C16.567,948.369 30,934.951 30,918.369L30,781.23C30,764.648 16.567,751.23 0,751.23" style="fill:white;fill-rule:nonzero;"/>
            </g>
            <g transform="matrix(1,0,0,1,551.991,405.353)">
                <path d="M0,334.805C-92.314,334.805 -167.417,259.717 -167.417,167.403C-167.417,75.088 -92.314,0 0,0C92.314,0 167.417,75.088 167.417,167.403C167.417,259.717 92.314,334.805 0,334.805M0,-60C-125.405,-60 -227.417,42.012 -227.417,167.403C-227.417,292.793 -125.405,394.805 0,394.805C125.405,394.805 227.417,292.793 227.417,167.403C227.417,42.012 125.405,-60 0,-60" style="fill:white;fill-rule:nonzero;"/>
            </g>
            <g transform="matrix(1,0,0,1,811.522,354.692)">
                <path d="M0,557.476L142.456,614.004L25.6,700.73L0,557.476ZM186.793,567.027L-0.051,492.886L209.947,-36.324L396.744,37.784L186.793,567.027ZM288.1,-153.537C312.739,-164.143 340.073,-164.611 365.004,-154.68C389.965,-144.777 409.565,-125.764 420.229,-101.125C430.864,-76.486 431.245,-49.182 421.342,-24.221L418.876,-18.003L232.084,-92.111L234.545,-98.313C244.448,-123.274 263.461,-142.873 288.1,-153.537M387.153,-210.461C347.28,-226.223 303.657,-225.578 264.311,-208.615C224.965,-191.623 194.584,-160.305 178.764,-120.461L165.238,-86.374C165.236,-86.369 165.231,-86.365 165.229,-86.359C165.227,-86.354 165.227,-86.347 165.225,-86.341L-66.89,498.641C-68.207,501.971 -68.685,505.507 -68.762,509.063C-68.782,510.05 -68.723,510.976 -68.648,511.952C-68.571,512.965 -68.714,513.985 -68.531,514.988L-24.937,758.973C-23.121,769.197 -16.119,777.752 -6.48,781.59C-2.906,782.996 0.844,783.699 4.594,783.699C10.922,783.699 17.221,781.678 22.465,777.781L221.479,630.066C222.698,629.165 223.636,627.979 224.698,626.911C225.482,626.126 226.36,625.478 227.06,624.599C228.882,622.312 230.414,619.8 231.498,617.059L477.123,-2.072C492.944,-41.916 492.299,-85.568 475.307,-124.914C458.315,-164.26 426.996,-194.641 387.153,-210.461" style="fill:white;fill-rule:nonzero;"/>
            </g>
        </g>
    </g>
</svg>
