<?xml version="1.0" encoding="UTF-8" standalone="no"?>
<!DOCTYPE svg PUBLIC "-//W3C//DTD SVG 1.1//EN" "http://www.w3.org/Graphics/SVG/1.1/DTD/svg11.dtd">
<svg width="100%" height="100%" viewBox="0 0 88 88" version="1.1" xmlns="http://www.w3.org/2000/svg" xmlns:xlink="http://www.w3.org/1999/xlink" xml:space="preserve" xmlns:serif="http://www.serif.com/" style="fill-rule:evenodd;clip-rule:evenodd;stroke-linejoin:round;stroke-miterlimit:2;">
    <g transform="matrix(0.114317,0,0,0.114317,64.3546,27.3735)">
        <path d="M0,265.554C-14.651,265.483 -26.832,253.329 -26.781,238.831C-26.728,223.614 -14.56,211.366 0.468,211.404C15.39,211.442 27.704,224.027 27.515,239.046C27.33,253.804 15.058,265.628 0,265.554M-98.63,162.505C-99.082,165.848 -100.896,169.055 -102.472,172.158C-102.803,172.81 -104.606,173.227 -105.533,172.987C-119.382,169.413 -130.231,173.926 -138.316,185.313C-140.203,187.971 -141.703,191.285 -142.164,194.473C-142.702,198.189 -141.973,202.104 -141.671,205.923C-141.231,211.492 -145.921,216.488 -151.68,216.185C-152.756,216.128 -153.979,215.081 -154.776,214.175C-157.636,210.924 -160.4,207.584 -163.09,204.19C-165.936,200.598 -169.489,199.417 -174.062,199.733C-179.005,200.074 -184.067,199.122 -188.95,199.738C-192.268,200.157 -195.974,201.628 -198.427,203.831C-202.341,207.347 -205.356,211.863 -208.743,215.946C-209.597,215.848 -209.77,215.863 -209.916,215.807C-218.898,212.393 -218.891,212.393 -218.376,202.912C-218.259,200.749 -218.415,198.552 -218.091,196.424C-217.277,191.08 -219.021,186.963 -223.454,183.898C-224.404,183.242 -225.412,182.477 -226.001,181.52C-231.921,171.892 -240.868,171.06 -250.83,172.607C-253.133,172.965 -256.691,173.251 -257.74,171.979C-259.863,169.402 -260.849,165.791 -261.873,162.474C-262.106,161.722 -260.748,160.252 -259.842,159.415C-256.417,156.249 -252.435,153.568 -249.532,149.997C-247.528,147.53 -246.39,143.986 -245.893,140.764C-245.318,137.038 -246.319,133.079 -245.824,129.328C-245.162,124.314 -246.633,120.567 -250.47,117.457C-253.185,115.257 -255.505,112.485 -258.428,110.644C-262.88,107.841 -261.741,104.77 -260.195,100.915C-258.548,96.807 -256.484,94.454 -251.735,95.777C-250.316,96.172 -248.742,95.97 -247.268,96.217C-239.082,97.589 -233.469,94.473 -227.059,88.836C-218.47,81.283 -217.03,73.205 -218.466,63.162C-218.773,61.016 -219.021,57.652 -217.842,56.749C-215.165,54.701 -211.64,53.651 -208.326,52.629C-207.573,52.397 -206.101,53.77 -205.26,54.682C-202.208,57.985 -199.658,61.875 -196.191,64.629C-193.569,66.712 -189.916,67.677 -186.573,68.601C-184.747,69.106 -182.509,68.039 -180.633,68.461C-170.311,70.784 -163.77,65.745 -157.924,58.019C-152.874,51.346 -150.138,51.263 -143.181,56.193C-142.156,56.92 -141.259,59.124 -141.59,60.272C-145.775,74.745 -139.182,84.913 -128.45,93.28C-126.265,94.984 -123.199,96.151 -120.439,96.385C-116.334,96.733 -112.091,96.339 -107.998,95.686C-104.037,95.055 -102.216,96.335 -100.513,100.011C-98.236,104.924 -98.078,108.446 -103.066,111.62C-111.701,117.116 -115.259,124.361 -114.777,135.366C-114.391,144.174 -112.424,150.373 -105.34,155.132C-104.381,155.777 -103.521,156.608 -102.738,157.465C-101.229,159.115 -98.43,161.032 -98.63,162.505M-153.117,342.864C-153.074,357.885 -165.491,370.103 -180.628,369.934C-195.211,369.772 -207.183,357.639 -207.233,342.971C-207.285,327.839 -194.958,315.478 -179.968,315.629C-165.1,315.779 -153.16,327.89 -153.117,342.864M-207.247,-74.043C-207.257,-89.228 -195.101,-101.257 -179.854,-101.151C-164.925,-101.048 -153.128,-89.025 -153.132,-73.919C-153.136,-59.124 -165.415,-46.9 -180.237,-46.937C-195.04,-46.973 -207.237,-59.213 -207.247,-74.043M-333.533,239.086C-333.997,254.139 -346.161,265.817 -361.103,265.555C-376.171,265.291 -388.142,253.05 -387.797,238.261C-387.447,223.251 -375.254,211.242 -360.519,211.395C-345.51,211.55 -333.079,224.307 -333.533,239.086M-360.455,57.259C-375.512,57.356 -387.709,45.192 -387.818,29.97C-387.923,15.235 -375.721,3.163 -360.667,3.106C-345.799,3.05 -333.616,15.127 -333.528,30.008C-333.44,44.743 -345.713,57.163 -360.455,57.259M0.269,3.11C15.225,3.046 27.32,14.931 27.538,29.907C27.751,44.534 15.374,57.132 0.686,57.239C-14.384,57.349 -26.739,45.137 -26.802,30.067C-26.865,15.285 -14.702,3.174 0.269,3.11M21.955,197.912C4.317,188.682 -16.367,191.346 -30.842,204.999C-33.265,207.285 -34.942,207.399 -37.65,205.75C-44.902,201.333 -52.324,197.196 -59.676,192.942C-67.85,188.212 -76.02,183.476 -84.061,178.819C-82.047,172.979 -80.105,167.685 -78.405,162.314C-76.968,157.775 -77.942,153.81 -81.743,150.636C-84.939,147.967 -87.991,145.127 -91.123,142.382C-97.171,137.08 -97.206,131.554 -91.209,126.298C-88.327,123.772 -85.556,121.104 -82.54,118.751C-77.78,115.037 -76.848,110.45 -78.789,104.975C-80.55,100.011 -82.26,95.028 -84.076,89.813C-68.65,80.895 -53.332,72.151 -38.154,63.172C-35.094,61.362 -33.268,61.434 -30.513,63.944C-19.677,73.814 -6.886,77.873 7.744,75.497C33.497,71.316 50.496,46.866 45.557,21.116C40.893,-3.203 16.153,-20.065 -7.768,-15.227C-34.129,-9.896 -50.456,14.665 -44.422,40.259C-43.595,43.765 -44.611,45.223 -47.518,46.858C-60.87,54.366 -74.294,61.785 -87.269,69.912C-94.88,74.68 -102.712,77.097 -111.61,77.229C-119.884,77.351 -123.521,74.043 -123.006,65.825C-122.724,61.335 -122.41,56.848 -122.131,52.359C-121.865,48.085 -123.623,44.669 -127.434,42.963C-135.762,39.236 -144.188,35.697 -152.717,32.461C-157.015,30.83 -160.88,32.337 -163.891,35.892C-165.771,38.112 -167.757,40.241 -170.432,43.236C-170.558,40.433 -170.692,38.825 -170.693,37.218C-170.709,18.054 -170.707,-1.11 -170.708,-20.275C-170.709,-28.408 -170.708,-28.408 -163.233,-31.34C-140.67,-40.19 -128.965,-65.018 -136.348,-88.367C-143.476,-110.909 -167.587,-124.446 -190.683,-118.874C-210.627,-114.062 -225.174,-96.835 -226.156,-76.866C-227.199,-55.669 -214.733,-37.192 -194.497,-30.537C-190.684,-29.283 -189.397,-27.675 -189.445,-23.609C-189.683,-3.115 -189.56,17.384 -189.585,37.881C-189.587,39.271 -189.767,40.66 -189.945,43.199C-192.394,40.483 -194.193,38.767 -195.662,36.805C-199.279,31.975 -203.949,30.759 -209.354,32.925C-217.212,36.074 -224.997,39.418 -232.719,42.888C-236.783,44.715 -238.532,48.149 -238.225,52.633C-237.861,57.951 -237.629,63.279 -237.226,68.595C-236.867,73.333 -240.629,76.846 -243.535,76.889C-250.834,76.995 -259.035,76.963 -265.307,73.839C-281.675,65.688 -297.16,55.777 -313.105,46.758C-315.915,45.168 -316.669,43.642 -315.947,40.464C-309.213,10.833 -331.379,-16.564 -361.79,-15.755C-381.065,-15.241 -395.24,-5.684 -402.849,11.93C-410.552,29.762 -407.671,46.855 -394.49,61.143C-381.351,75.386 -364.716,79.936 -346.24,73.472C-338.918,70.91 -332.441,65.933 -324.941,61.694C-309.314,70.724 -292.781,80.277 -276.25,89.829C-278.217,95.475 -280.083,100.617 -281.797,105.808C-283.418,110.721 -282.477,114.929 -278.258,118.309C-275.142,120.806 -272.234,123.562 -269.241,126.212C-263.212,131.551 -263.184,137 -269.165,142.308C-271.906,144.741 -274.553,147.298 -277.443,149.541C-282.295,153.308 -283.684,157.884 -281.553,163.659C-279.724,168.612 -278.076,173.632 -276.264,178.863C-291.505,187.67 -306.686,196.313 -321.711,205.222C-325.06,207.208 -327.018,207.263 -330.163,204.414C-345.467,190.552 -367.119,188.625 -384.355,199.085C-401.606,209.554 -410.082,229.547 -405.497,248.952C-399.56,274.08 -375.069,289.136 -349.665,283.275C-325.572,277.716 -310.32,253.091 -315.894,228.457C-316.643,225.148 -316.009,223.523 -312.943,221.818C-299.554,214.373 -286.132,206.943 -273.163,198.804C-265.556,194.031 -257.72,191.621 -248.849,191.416C-240.501,191.224 -236.88,194.465 -237.349,202.701C-237.595,207.025 -237.877,211.348 -238.23,215.664C-238.614,220.354 -236.749,223.906 -232.578,225.873C-225.062,229.419 -217.488,232.87 -209.79,235.997C-204.903,237.983 -200.7,236.422 -197.451,232.192C-195.284,229.371 -192.93,226.695 -189.824,222.944C-189.691,225.834 -189.567,227.267 -189.566,228.701C-189.558,249.865 -189.678,271.03 -189.468,292.191C-189.429,296.178 -190.544,297.885 -194.43,299.158C-217.809,306.821 -230.823,330.756 -224.744,354.322C-219.353,375.221 -199.464,390 -178.395,388.762C-155.285,387.405 -137.256,370.865 -134.382,348.384C-131.653,327.029 -144.718,306.139 -165.53,299.326C-169.61,297.991 -170.849,296.277 -170.8,292.085C-170.57,272.591 -170.692,253.092 -170.689,233.596C-170.688,231.209 -170.689,228.823 -170.689,225.034C-168.299,227.789 -166.743,229.267 -165.563,231.001C-161.835,236.482 -156.771,238.136 -150.774,235.759C-142.768,232.585 -134.871,229.108 -127.078,225.44C-123.489,223.751 -121.852,220.457 -122.128,216.365C-122.487,211.046 -122.642,205.707 -123.19,200.409C-123.687,195.607 -119.931,191.992 -117.182,191.873C-110.056,191.562 -101.944,191.388 -95.842,194.417C-79.464,202.546 -63.989,212.48 -48.019,221.454C-44.531,223.414 -43.714,225.255 -44.616,229.28C-51.836,261.511 -22.416,290.603 10.007,283.525C28.796,279.424 43.43,263.962 45.84,245.663C48.49,225.54 39.179,206.926 21.955,197.912" style="fill:white;fill-rule:nonzero;"/>
    </g>
    <g transform="matrix(0.114317,0,0,0.114317,43.7374,39.304)">
        <path d="M0,59.809C-16.33,59.768 -29.825,46.119 -29.691,29.778C-29.558,13.605 -16.159,0.136 -0.129,0.062C16.517,-0.015 30.186,13.606 30.042,30.128C29.899,46.566 16.453,59.85 0,59.809M0.741,-18.886C-25.841,-19.29 -48.288,2.525 -48.665,29.13C-49.047,56.097 -27.288,78.477 -0.385,78.788C26.521,79.099 48.75,57.268 49.014,30.273C49.275,3.628 27.567,-18.478 0.741,-18.886" style="fill:white;fill-rule:nonzero;"/>
    </g>
</svg>
