<?xml version="1.0" encoding="UTF-8" standalone="no"?>
<!DOCTYPE svg PUBLIC "-//W3C//DTD SVG 1.1//EN" "http://www.w3.org/Graphics/SVG/1.1/DTD/svg11.dtd">
<svg width="100%" height="100%" viewBox="0 0 88 88" version="1.1" xmlns="http://www.w3.org/2000/svg" xmlns:xlink="http://www.w3.org/1999/xlink" xml:space="preserve" xmlns:serif="http://www.serif.com/" style="fill-rule:evenodd;clip-rule:evenodd;stroke-linejoin:round;stroke-miterlimit:2;">
    <g transform="matrix(0.327118,0,0,0.316782,13.4462,19.5516)">
        <g id="Layer-1" serif:id="Layer 1">
            <g transform="matrix(1,0,0,1,41.5156,63.4264)">
                <path d="M0,9.12L32.244,9.12C34.759,9.12 36.805,7.074 36.805,4.559C36.805,2.046 34.759,0 32.244,0L0,0C-2.515,0 -4.561,2.046 -4.561,4.559C-4.561,7.074 -2.515,9.12 0,9.12" style="fill:white;fill-rule:nonzero;"/>
            </g>
            <g transform="matrix(1,0,0,1,79.3115,88.3355)">
                <path d="M0,0C0,-2.515 -2.046,-4.561 -4.56,-4.561L-74.751,-4.561C-77.266,-4.561 -79.312,-2.515 -79.312,0C-79.312,2.515 -77.266,4.561 -74.751,4.561L-4.56,4.561C-2.046,4.561 0,2.515 0,0" style="fill:white;fill-rule:nonzero;"/>
            </g>
            <g transform="matrix(1,0,0,1,124.879,132.801)">
                <path d="M0,-111.248L0,-123.682L6.463,-123.682C8.978,-123.682 11.023,-125.728 11.023,-128.241C11.023,-130.756 8.978,-132.802 6.463,-132.802L-15.583,-132.802C-18.098,-132.802 -20.144,-130.756 -20.144,-128.241C-20.144,-125.728 -18.098,-123.682 -15.583,-123.682L-9.12,-123.682L-9.12,-111.264C-28.485,-109.972 -46.042,-100.474 -57.816,-84.75C-59.322,-82.737 -58.91,-79.873 -56.898,-78.365C-55.925,-77.633 -54.723,-77.328 -53.513,-77.502C-52.308,-77.677 -51.241,-78.309 -50.512,-79.281C-39.563,-93.91 -22.813,-102.301 -4.561,-102.301C27.072,-102.301 52.808,-76.566 52.808,-44.934C52.808,-13.301 27.072,12.434 -4.561,12.434C-22.799,12.434 -39.537,4.06 -50.484,-10.538C-51.215,-11.515 -52.281,-12.147 -53.487,-12.319C-54.695,-12.493 -55.895,-12.184 -56.866,-11.452C-57.843,-10.722 -58.476,-9.654 -58.647,-8.448C-58.819,-7.242 -58.512,-6.042 -57.78,-5.069C-45.095,11.85 -25.697,21.554 -4.561,21.554C32.102,21.554 61.928,-8.273 61.928,-44.934C61.928,-80.061 34.541,-108.894 0,-111.248" style="fill:white;fill-rule:nonzero;"/>
            </g>
            <g transform="matrix(1,0,0,1,117.289,67.7395)">
                <path d="M0,31.585C0.105,31.679 0.199,31.786 0.311,31.87C0.414,31.946 0.531,31.999 0.639,32.066C0.806,32.17 0.969,32.283 1.148,32.364C1.25,32.411 1.363,32.433 1.469,32.472C1.664,32.544 1.856,32.624 2.061,32.668C2.377,32.737 2.701,32.774 3.03,32.774C3.303,32.774 3.575,32.749 3.841,32.7C3.984,32.674 4.119,32.625 4.258,32.586C4.379,32.552 4.503,32.53 4.62,32.486C4.769,32.431 4.907,32.353 5.049,32.282C5.149,32.232 5.254,32.193 5.35,32.137C5.487,32.055 5.611,31.954 5.739,31.858C5.824,31.795 5.916,31.743 5.996,31.674L6.03,31.645C6.034,31.642 6.038,31.64 6.041,31.637C6.044,31.635 6.045,31.632 6.048,31.63L34.886,6.911C35.813,6.118 36.374,5.012 36.468,3.797C36.561,2.584 36.174,1.408 35.382,0.486C34.593,-0.441 33.49,-1.004 32.277,-1.098C31.046,-1.189 29.879,-0.805 28.954,-0.01L3.481,21.823L-7.996,8.778C-9.663,6.893 -12.55,6.708 -14.429,8.365C-16.317,10.027 -16.503,12.913 -14.843,14.8L-0.394,31.224C-0.275,31.359 -0.133,31.466 0,31.585" style="fill:white;fill-rule:nonzero;"/>
            </g>
            <g transform="matrix(1,0,0,1,78.3203,108.154)">
                <path d="M0,-0.001C0,-2.515 -2.046,-4.561 -4.561,-4.561L-51.785,-4.561C-54.3,-4.561 -56.346,-2.515 -56.346,-0.001C-56.346,2.514 -54.3,4.56 -51.785,4.56L-4.561,4.56C-2.046,4.56 0,2.514 0,-0.001" style="fill:white;fill-rule:nonzero;"/>
            </g>
        </g>
    </g>
</svg>
