<?xml version="1.0" encoding="UTF-8" standalone="no"?>
<!DOCTYPE svg PUBLIC "-//W3C//DTD SVG 1.1//EN" "http://www.w3.org/Graphics/SVG/1.1/DTD/svg11.dtd">
<svg width="100%" height="100%" viewBox="0 0 65 65" version="1.1" xmlns="http://www.w3.org/2000/svg" xmlns:xlink="http://www.w3.org/1999/xlink" xml:space="preserve" xmlns:serif="http://www.serif.com/" style="fill-rule:evenodd;clip-rule:evenodd;stroke-linejoin:round;stroke-miterlimit:2;">
    <g transform="matrix(0.217925,0,0,0.212554,5.79466,8.48627)">
        <g transform="matrix(1,0,0,1,69.3003,140.534)">
            <path d="M0,-7.834C1,-7.167 1.566,-6.267 1.7,-5.134C1.9,-3.867 1.666,-2.767 1,-1.834C0.333,-0.9 -0.6,-0.334 -1.8,-0.134C-7.4,0.8 -13.1,1 -18.9,0.467C-20.034,0.333 -20.967,-0.2 -21.7,-1.134C-22.5,-2 -22.834,-3 -22.7,-4.134C-22.567,-5.334 -22.067,-6.3 -21.2,-7.033C-20.267,-7.834 -19.2,-8.167 -18,-8.033C-13.067,-7.567 -8.1,-7.767 -3.1,-8.634C-1.967,-8.834 -0.934,-8.567 0,-7.834" style="fill:white;"/>
        </g>
        <g transform="matrix(1,0,0,1,80.4004,120.266)">
            <path d="M0,15.234C-1.134,14.9 -1.867,14.167 -2.2,13.034C-2.733,11.9 -2.767,10.8 -2.3,9.734C-1.9,8.667 -1.134,7.9 0,7.433C4.4,5.567 8.767,3.2 13.1,0.334C14.1,-0.333 15.166,-0.533 16.3,-0.267C17.433,-0.066 18.333,0.534 19,1.534C19.666,2.534 19.866,3.6 19.6,4.734C19.333,5.867 18.733,6.767 17.8,7.433C13,10.633 8.166,13.234 3.3,15.234C2.166,15.767 1.066,15.767 0,15.234" style="fill:white;"/>
        </g>
        <g transform="matrix(-0.972045,-0.234794,-0.234794,0.972045,195.226,47.6837)">
            <path d="M-0.998,-0.019L20.298,-0.019L-15.31,-24.668L-9.699,18.969L-0.998,-0.019Z" style="fill:white;"/>
        </g>
        <g transform="matrix(1,0,0,1,221.288,39.2346)">
            <path d="M0,26.3C-5.866,32.3 -13.066,35.3 -21.6,35.3C-30,35.3 -37.233,32.3 -43.3,26.3C-49.033,20.5 -51.899,13.367 -51.899,4.9C-51.899,-3.633 -49.033,-10.9 -43.3,-16.9C-37.233,-22.7 -30,-25.6 -21.6,-25.6C-13.066,-25.6 -5.866,-22.7 0,-16.9C6,-10.9 9,-3.633 9,4.9C9,13.367 6,20.5 0,26.3M12.2,-24.7C11.667,-25.3 11.167,-25.833 10.7,-26.3C9.5,-27.5 8.334,-28.6 7.2,-29.6C-0.934,-36.266 -10.333,-39.6 -21,-39.6C-31.733,-39.6 -41.133,-36.266 -49.2,-29.6C-50.399,-28.6 -51.566,-27.5 -52.7,-26.3C-61.5,-17.567 -65.899,-7.067 -65.899,5.2C-65.899,16.533 -62.166,26.467 -54.7,35L-54.5,35.1C-53.899,35.7 -53.3,36.3 -52.7,36.9C-51.1,38.7 -49.366,40.234 -47.5,41.5L-20.8,65.9L-16.899,62.2C-16.7,62 -16.467,61.867 -16.2,61.8L7.601,40C8.601,39.2 9.634,38.167 10.7,36.9C15.434,32.1 18.867,26.8 21,21C22.867,16.133 23.8,10.867 23.8,5.2C23.8,-6.333 19.934,-16.3 12.2,-24.7" style="fill:white;fill-rule:nonzero;"/>
        </g>
        <g transform="matrix(1,0,0,1,108.101,116.433)">
            <path d="M0,-4.633C7,-7.7 13.233,-8.2 18.699,-6.133L18.699,-6.233C18.833,-6.167 18.933,-6.133 19,-6.133C20.133,-5.8 20.966,-5.067 21.5,-3.933C21.966,-2.933 22.033,-1.866 21.699,-0.733C21.3,0.4 20.6,1.233 19.6,1.767C18.466,2.233 17.366,2.267 16.3,1.867L16,1.867C12.267,0.667 8.066,1.1 3.399,3.167C2.267,3.567 1.166,3.567 0.1,3.167C-0.967,2.767 -1.734,2.034 -2.2,0.967C-2.667,-0.167 -2.7,-1.267 -2.3,-2.333C-1.834,-3.4 -1.067,-4.167 0,-4.633" style="fill:white;"/>
        </g>
        <g transform="matrix(1,0,0,1,38.7002,139.3)">
            <path d="M0,-12.6C1.8,-10.799 2.7,-8.7 2.7,-6.299C2.7,-4.7 2.333,-3.266 1.6,-1.999C1.2,-1.266 0.666,-0.633 0,-0.1C-1.667,1.701 -3.733,2.6 -6.2,2.6C-8.667,2.6 -10.767,1.701 -12.5,-0.1C-14.233,-1.766 -15.1,-3.833 -15.1,-6.299C-15.1,-8.7 -14.233,-10.799 -12.5,-12.6C-10.767,-14.333 -8.667,-15.2 -6.2,-15.2C-3.733,-15.2 -1.667,-14.333 0,-12.6" style="fill:white;"/>
        </g>
        <g transform="matrix(1,0,0,1,206.8,128.7)">
            <path d="M0,8.6C-0.466,9.333 -0.966,9.966 -1.5,10.499C-3.233,12.3 -5.333,13.2 -7.8,13.2C-10.267,13.2 -12.366,12.3 -14.1,10.499C-15.833,8.833 -16.699,6.766 -16.699,4.3C-16.699,1.9 -15.833,-0.2 -14.1,-2.001C-12.366,-3.734 -10.267,-4.6 -7.8,-4.6C-5.333,-4.6 -3.233,-3.734 -1.5,-2.001C0.167,-0.2 1,1.9 1,4.3C1,5.9 0.667,7.333 0,8.6" style="fill:white;"/>
        </g>
        <g transform="matrix(1,0,0,1,140.101,175)">
            <path d="M0,0.6L-1.4,0L0.399,0L0,0.6Z" style="fill:white;"/>
        </g>
        <g transform="matrix(1,0,0,1,154.5,125.267)">
            <path d="M0,4.133C0.867,4.933 1.334,5.933 1.4,7.133C1.4,8.267 1,9.267 0.2,10.133C-0.533,11 -1.5,11.467 -2.7,11.533C-3.833,11.6 -4.833,11.199 -5.7,10.333C-6.1,10.067 -6.533,9.734 -7,9.333C-10.6,5.866 -14,2.933 -17.2,0.533C-17.399,0.4 -17.566,0.267 -17.7,0.133C-17.767,0.067 -17.866,-0.033 -18,-0.167C-18.866,-1.033 -19.3,-2.033 -19.3,-3.167C-19.3,-4.367 -18.866,-5.367 -18,-6.167C-17.2,-7.034 -16.233,-7.467 -15.1,-7.467C-13.899,-7.467 -12.866,-7.034 -12,-6.167L-11.899,-6.167C-8.566,-3.567 -5,-0.5 -1.2,3.033L-1.2,3.133C-0.733,3.467 -0.333,3.8 0,4.133" style="fill:white;"/>
        </g>
        <g transform="matrix(1,0,0,1,183,145.466)">
            <path d="M0,-9.166C1.066,-8.633 1.767,-7.8 2.101,-6.666C2.434,-5.533 2.367,-4.466 1.9,-3.466C1.367,-2.466 0.533,-1.767 -0.6,-1.366C-6.8,0.567 -12.833,0.7 -18.7,-0.966C-19.833,-1.3 -20.666,-1.966 -21.2,-2.966C-21.866,-3.966 -22.033,-5.066 -21.7,-6.267C-21.366,-7.333 -20.666,-8.133 -19.6,-8.666C-18.6,-9.333 -17.533,-9.5 -16.399,-9.166C-12.133,-7.966 -7.733,-8.066 -3.2,-9.466C-2.066,-9.866 -1,-9.767 0,-9.166" style="fill:white;"/>
        </g>
        <g transform="matrix(1,0,0,1,146.601,211.799)">
            <path d="M0,-164.499C0.066,-158.366 1.233,-152.599 3.5,-147.199L-21.2,-160.599L-21.2,-114.399L-34.801,-114.399L-34.801,-160.799L-77.601,-137.899L-77.601,-96.899L-91.2,-96.899L-91.2,-137.899L-133.001,-160.599L-133.001,-26.499L-91.2,-3.799L-91.2,-58.399L-77.601,-58.399L-77.601,-3.6L-34.801,-26.499L-34.801,-79.199L-21.2,-79.199L-21.2,-26.499L20.6,-3.799L20.6,-52.799L34.199,-52.799L34.199,-3.6L77,-26.499L77,-115.799L90.6,-128.199L90.6,-22.499C90.6,-21.232 90.267,-20.065 89.6,-18.999C88.933,-17.933 88.066,-17.065 87,-16.399L30.8,13.4C30.533,13.667 30.233,13.867 29.899,14.001L28.3,14.4C27.833,14.468 27.399,14.501 27,14.501C26.933,14.435 26.866,14.4 26.8,14.4L26.1,14.4C25.3,14.268 24.566,13.968 23.899,13.501L-28.101,-14.699L-81.2,13.501C-81.601,13.834 -82.067,14.067 -82.601,14.201C-83.4,14.468 -84.234,14.567 -85.101,14.501C-85.367,14.435 -85.667,14.367 -86.001,14.301C-86.267,14.234 -86.567,14.167 -86.9,14.101C-87.034,13.968 -87.134,13.9 -87.2,13.9C-87.334,13.834 -87.434,13.768 -87.501,13.701C-87.7,13.567 -87.9,13.468 -88.101,13.4L-143.101,-16.499C-144.167,-17.1 -145.034,-17.933 -145.7,-18.999C-146.3,-20.065 -146.601,-21.232 -146.601,-22.499L-146.601,-172.099C-146.601,-173.766 -146.101,-175.199 -145.101,-176.399C-144.101,-177.666 -142.767,-178.466 -141.101,-178.799C-139.501,-179.066 -138.001,-178.832 -136.601,-178.099L-84.4,-149.699L-31.4,-177.999C-30.934,-178.332 -30.434,-178.533 -29.9,-178.599L-29.601,-178.699C-29.067,-178.899 -28.567,-178.966 -28.101,-178.899C-27.834,-178.966 -27.601,-178.966 -27.4,-178.899C-27.267,-178.899 -27.167,-178.866 -27.101,-178.799C-26.834,-178.799 -26.601,-178.766 -26.4,-178.699C-26.2,-178.633 -25.967,-178.566 -25.7,-178.499C-25.5,-178.366 -25.267,-178.266 -25,-178.199C-24.801,-178.133 -24.601,-177.999 -24.4,-177.799L0,-164.499Z" style="fill:white;"/>
        </g>
    </g>
</svg>
