<?xml version="1.0" encoding="UTF-8" standalone="no"?>
<!DOCTYPE svg PUBLIC "-//W3C//DTD SVG 1.1//EN" "http://www.w3.org/Graphics/SVG/1.1/DTD/svg11.dtd">
<svg width="100%" height="100%" viewBox="0 0 321 90" version="1.1" xmlns="http://www.w3.org/2000/svg" xmlns:xlink="http://www.w3.org/1999/xlink" xml:space="preserve" xmlns:serif="http://www.serif.com/" style="fill-rule:evenodd;clip-rule:evenodd;stroke-linejoin:round;stroke-miterlimit:2;">
    <g transform="matrix(2.06534,0,0,2.06534,0,0.000648233)">
        <clipPath id="_clip1">
            <rect x="-0.947" y="-0" width="156.182" height="50.158"/>
        </clipPath>
        <g clip-path="url(#_clip1)">
            <g transform="matrix(1,0,0,1,50.631,14.1662)">
                <path d="M0,-0.599L0.523,-0.53C0.648,-0.514 0.671,-0.343 0.555,-0.294L0.068,-0.091C0.027,-0.074 -0.001,-0.037 -0.007,0.007L-0.076,0.53C-0.092,0.655 -0.263,0.678 -0.312,0.562L-0.515,0.075C-0.532,0.034 -0.57,0.006 -0.613,0L-1.136,-0.068C-1.261,-0.085 -1.284,-0.256 -1.168,-0.305L-0.681,-0.508C-0.64,-0.525 -0.612,-0.562 -0.606,-0.606L-0.538,-1.129C-0.521,-1.254 -0.35,-1.277 -0.301,-1.161L-0.098,-0.674C-0.081,-0.633 -0.044,-0.605 0,-0.599" style="fill:rgb(98,37,117);fill-rule:nonzero;"/>
            </g>
            <g transform="matrix(1,0,0,1,56.2773,2.1618)">
                <path d="M0,-1.047L0.915,-0.927C1.133,-0.898 1.173,-0.599 0.97,-0.514L0.119,-0.158C0.048,-0.129 -0.002,-0.063 -0.012,0.013L-0.132,0.927C-0.161,1.146 -0.46,1.186 -0.545,0.983L-0.901,0.132C-0.931,0.061 -0.996,0.011 -1.072,0.001L-1.987,-0.119C-2.206,-0.148 -2.245,-0.447 -2.042,-0.533L-1.191,-0.888C-1.12,-0.918 -1.07,-0.983 -1.06,-1.059L-0.94,-1.974C-0.911,-2.193 -0.612,-2.233 -0.527,-2.029L-0.171,-1.178C-0.142,-1.107 -0.076,-1.057 0,-1.047" style="fill:rgb(98,37,117);fill-rule:nonzero;"/>
            </g>
            <g transform="matrix(0.3633,-16.4696,-16.4696,-0.3633,61.8071,36.995)">
                <path d="M0.65,0.385L0.145,0.374L0.149,0.17L0.659,0.181C0.756,0.183 0.84,0.102 0.843,0.005C0.845,-0.097 0.764,-0.181 0.667,-0.183L0.157,-0.195L0.161,-0.394L0.667,-0.383C0.875,-0.378 1.046,-0.204 1.042,0.01C1.037,0.218 0.858,0.389 0.65,0.385Z" style="fill:url(#_Linear2);fill-rule:nonzero;"/>
            </g>
            <g transform="matrix(38.5098,19.8604,19.8604,-38.5098,-1.91911,16.0648)">
                <path d="M0.032,0.034L0.238,-0.366L0.317,-0.325L0.225,-0.147C0.21,-0.117 0.223,-0.079 0.254,-0.063C0.283,-0.047 0.322,-0.06 0.337,-0.09L0.429,-0.268L0.509,-0.226L0.482,-0.175C0.487,-0.177 0.492,-0.179 0.496,-0.181C0.517,-0.188 0.542,-0.191 0.567,-0.189C0.589,-0.188 0.611,-0.182 0.635,-0.17C0.659,-0.157 0.678,-0.143 0.693,-0.125C0.708,-0.108 0.719,-0.087 0.726,-0.063C0.726,-0.06 0.727,-0.057 0.728,-0.054L0.81,-0.214L0.887,-0.174L0.819,-0.041C0.853,-0.043 0.883,-0.037 0.911,-0.023C0.999,0.022 1.033,0.131 0.987,0.219C0.942,0.306 0.835,0.341 0.748,0.296C0.688,0.265 0.654,0.205 0.652,0.142C0.637,0.152 0.62,0.16 0.602,0.164C0.576,0.171 0.554,0.173 0.534,0.17C0.508,0.167 0.487,0.161 0.469,0.152C0.449,0.141 0.432,0.128 0.415,0.107C0.4,0.091 0.389,0.071 0.381,0.046C0.376,0.032 0.374,0.017 0.374,0.002C0.328,0.035 0.265,0.043 0.213,0.016C0.194,0.006 0.177,-0.009 0.163,-0.027L0.111,0.075L0.032,0.034ZM0.75,0.096C0.727,0.14 0.744,0.194 0.788,0.217C0.833,0.24 0.889,0.223 0.911,0.179C0.934,0.134 0.916,0.079 0.872,0.056C0.828,0.033 0.773,0.051 0.75,0.096ZM0.528,-0.098C0.505,-0.09 0.488,-0.073 0.475,-0.048C0.463,-0.025 0.46,-0.001 0.466,0.022C0.473,0.045 0.488,0.062 0.511,0.074C0.533,0.085 0.554,0.087 0.578,0.079C0.6,0.072 0.616,0.058 0.629,0.034C0.642,0.007 0.646,-0.016 0.641,-0.038C0.633,-0.062 0.618,-0.079 0.596,-0.09C0.572,-0.103 0.55,-0.105 0.528,-0.098Z" style="fill:url(#_Linear3);fill-rule:nonzero;"/>
            </g>
            <g transform="matrix(0.3633,-16.4696,-16.4696,-0.3633,49.4231,36.7218)">
                <path d="M0.992,0.189C0.971,0.242 0.936,0.29 0.892,0.333C0.847,0.375 0.798,0.403 0.739,0.426C0.685,0.45 0.627,0.458 0.568,0.457C0.505,0.455 0.447,0.444 0.394,0.419C0.341,0.398 0.293,0.363 0.246,0.323C0.203,0.279 0.17,0.224 0.147,0.17C0.124,0.117 0.115,0.058 0.117,-0.005C0.118,-0.073 0.129,-0.131 0.155,-0.189C0.176,-0.242 0.211,-0.29 0.26,-0.332C0.305,-0.375 0.354,-0.408 0.408,-0.426C0.462,-0.444 0.525,-0.458 0.593,-0.456C0.652,-0.455 0.71,-0.439 0.767,-0.414C0.825,-0.388 0.873,-0.353 0.915,-0.303C0.953,-0.259 0.986,-0.209 1.004,-0.156C1.023,-0.102 1.036,-0.043 1.035,0.015C1.033,0.078 1.018,0.131 0.992,0.189ZM0.38,0.176C0.428,0.22 0.49,0.246 0.573,0.248C0.646,0.249 0.709,0.227 0.759,0.184C0.809,0.136 0.834,0.079 0.836,0.006C0.837,-0.062 0.814,-0.121 0.767,-0.171C0.719,-0.22 0.661,-0.241 0.589,-0.243C0.506,-0.244 0.442,-0.226 0.393,-0.184C0.343,-0.136 0.318,-0.078 0.316,-0.006C0.314,0.072 0.337,0.131 0.38,0.176Z" style="fill:url(#_Linear4);fill-rule:nonzero;"/>
            </g>
            <g transform="matrix(1,0,0,1,59.2811,17.5757)">
                <path d="M0,-0.402L-1.335,0.737C-1.508,0.89 -1.766,0.896 -1.95,0.756L-3.122,-0.14C-2.938,0.001 -2.679,-0.006 -2.507,-0.159L-1.172,-1.298L0,-0.402Z" style="fill:rgb(234,112,33);fill-rule:nonzero;"/>
            </g>
            <g transform="matrix(1,0,0,1,58.1093,15.3569)">
                <path d="M0,0.921L-1.335,2.06C-1.508,2.213 -1.766,2.219 -1.95,2.079L-3.508,0.888C-3.692,0.747 -3.753,0.496 -3.655,0.287L-2.902,-1.298L0,0.921Z" style="fill:rgb(226,50,33);fill-rule:nonzero;"/>
            </g>
            <g transform="matrix(1,0,0,1,68.3745,17.1115)">
                <path d="M0,-16.468C-5.063,-17.116 -9.419,-13.388 -13.894,-4.108C-13.995,-3.898 -13.935,-3.641 -13.75,-3.499L-8.51,0.507C-8.325,0.648 -8.061,0.639 -7.885,0.486C-0.103,-6.267 2.351,-11.448 0.399,-16.163C0.331,-16.327 0.176,-16.446 0,-16.468" style="fill:white;fill-rule:nonzero;"/>
            </g>
            <g transform="matrix(1,0,0,1,54.9592,6.5819)">
                <path d="M0,5.431L-0.152,5.315L2.241,1.172L-2.909,1.635C-3.048,1.647 -3.169,1.715 -3.252,1.825L-2.356,0.653C-2.273,0.544 -2.152,0.475 -2.013,0.463L3.137,0L0.743,4.143L0,5.431Z" style="fill:rgb(234,112,33);fill-rule:nonzero;"/>
            </g>
            <g transform="matrix(1,0,0,1,54.8069,7.7544)">
                <path d="M0,4.142L-3.25,1.658C-3.468,1.49 -3.506,1.183 -3.342,0.968L-3.1,0.652C-3.016,0.543 -2.896,0.474 -2.757,0.463L2.393,0L0,4.142Z" style="fill:rgb(227,68,34);fill-rule:nonzero;"/>
            </g>
            <g transform="matrix(1,0,0,1,54.9592,7.5509)">
                <path d="M0,4.462L-3.402,1.861C-3.621,1.694 -3.658,1.387 -3.494,1.172L-2.598,0C-2.762,0.215 -2.725,0.522 -2.506,0.689L0.743,3.174L0,4.462Z" style="fill:rgb(179,22,66);fill-rule:nonzero;"/>
            </g>
            <g transform="matrix(1,0,0,1,66.5506,13.5947)">
                <path d="M0,4.303L-0.896,5.475C-0.812,5.365 -0.781,5.228 -0.803,5.094L-1.711,0L-5.077,3.399L-5.229,3.282L-4.181,2.227L-0.815,-1.172L0.093,3.922C0.114,4.056 0.084,4.194 0,4.303" style="fill:rgb(234,112,33);fill-rule:nonzero;"/>
            </g>
            <g transform="matrix(1,0,0,1,65.6549,14.1675)">
                <path d="M0,4.902L-0.242,5.218C-0.406,5.433 -0.716,5.475 -0.931,5.31L-4.181,2.826L-0.815,-0.573L0.093,4.521C0.114,4.655 0.084,4.793 0,4.902" style="fill:rgb(226,50,33);fill-rule:nonzero;"/>
            </g>
            <g transform="matrix(1,0,0,1,66.3088,17.2501)">
                <path d="M0,0.964L-0.896,2.136C-1.06,2.351 -1.37,2.392 -1.585,2.228L-4.987,-0.373L-3.939,-1.428L-0.689,1.056C-0.474,1.22 -0.164,1.179 0,0.964" style="fill:rgb(179,22,66);fill-rule:nonzero;"/>
            </g>
            <g transform="matrix(1,0,0,1,56.0434,0.606)">
                <path d="M0,13.591C-0.101,13.804 -0.043,14.06 0.145,14.203L-1.418,13.009C-1.605,12.865 -1.664,12.61 -1.562,12.397C2.913,3.119 7.269,-0.612 12.329,0.038C12.504,0.06 12.66,0.18 12.727,0.343C12.841,0.615 12.937,0.886 13.016,1.163C8.324,1.036 4.214,4.856 0,13.591" style="fill:rgb(156,180,219);fill-rule:nonzero;"/>
            </g>
            <g transform="matrix(1,0,0,1,66.2849,16.8648)">
                <path d="M0,-15.734C-1.981,-15.47 -3.845,-14.41 -5.654,-12.53C-7.576,-10.532 -9.443,-7.626 -11.361,-3.648L-6.122,0.363C1.42,-6.179 3.934,-11.142 2.034,-15.729L2.027,-15.734C1.337,-15.822 0.662,-15.822 0,-15.734M-5.99,1.336C-6.242,1.37 -6.506,1.306 -6.719,1.144L-11.959,-2.862C-12.328,-3.145 -12.45,-3.655 -12.247,-4.075C-10.283,-8.149 -8.358,-11.137 -6.363,-13.211C-3.719,-15.96 -0.934,-17.104 2.152,-16.709C2.504,-16.664 2.807,-16.432 2.942,-16.104C5.03,-11.065 2.434,-5.758 -5.473,1.104C-5.623,1.234 -5.803,1.311 -5.99,1.336" style="fill:rgb(98,37,117);fill-rule:nonzero;"/>
            </g>
            <g transform="matrix(1,0,0,1,55.025,6.0853)">
                <path d="M0,6.414C-0.125,6.431 -0.256,6.4 -0.364,6.317L-3.767,3.715C-4.198,3.386 -4.281,2.768 -3.951,2.337L-2.816,0.851C-2.648,0.633 -2.392,0.493 -2.122,0.469L3.029,0.007C3.299,-0.017 3.538,0.182 3.562,0.452C3.587,0.723 3.387,0.965 3.117,0.986L-2.034,1.448L-3.17,2.934L0.234,5.536C0.449,5.701 0.49,6.009 0.326,6.225C0.243,6.333 0.125,6.397 0,6.414" style="fill:rgb(98,37,117);fill-rule:nonzero;"/>
            </g>
            <g transform="matrix(1,0,0,1,65.1529,11.9304)">
                <path d="M0,8.13C-0.25,8.163 -0.512,8.102 -0.727,7.937L-4.137,5.33C-4.353,5.165 -4.394,4.856 -4.229,4.641C-4.064,4.425 -3.756,4.384 -3.54,4.549L-0.13,7.156L1.006,5.67L0.101,0.578C0.054,0.311 0.232,0.056 0.499,0.008C0.768,-0.033 1.022,0.139 1.069,0.406L1.974,5.498C2.022,5.77 1.954,6.05 1.787,6.268L0.651,7.753C0.487,7.968 0.25,8.097 0,8.13" style="fill:rgb(98,37,117);fill-rule:nonzero;"/>
            </g>
            <g transform="matrix(0.607311,-0.794464,-0.794464,-0.607311,66.3627,6.21826)">
                <path d="M-2.01,-0.993C-3.407,-0.993 -4.539,0.139 -4.539,1.537C-4.54,2.934 -3.407,4.066 -2.01,4.067C-0.612,4.067 0.52,2.934 0.52,1.536C0.521,0.139 -0.612,-0.993 -2.01,-0.993" style="fill:rgb(249,187,49);fill-rule:nonzero;"/>
            </g>
            <g transform="matrix(1,0,0,1,65.9309,6.1445)">
                <path d="M0,2.275C-0.848,3.384 -2.437,3.593 -3.546,2.745C-4.656,1.897 -4.867,0.312 -4.019,-0.798C-3.864,-1.001 -3.68,-1.176 -3.485,-1.318C-3.865,-0.303 -3.557,0.88 -2.65,1.573C-1.744,2.266 -0.522,2.253 0.362,1.623C0.276,1.849 0.155,2.072 0,2.275" style="fill:rgb(234,112,33);fill-rule:nonzero;"/>
            </g>
            <g transform="matrix(1,0,0,1,63.6518,8.9023)">
                <path d="M0,-4.041C-0.54,-3.969 -1.019,-3.691 -1.35,-3.259C-1.68,-2.826 -1.823,-2.291 -1.751,-1.751C-1.679,-1.211 -1.401,-0.732 -0.968,-0.401C-0.536,-0.071 0,0.072 0.539,0C1.079,-0.072 1.558,-0.35 1.889,-0.783C2.219,-1.215 2.362,-1.751 2.29,-2.29C2.218,-2.83 1.94,-3.309 1.507,-3.64C1.075,-3.971 0.539,-4.113 0,-4.041M0.669,0.974C-0.131,1.081 -0.924,0.87 -1.565,0.38C-2.207,-0.11 -2.619,-0.821 -2.725,-1.621C-2.832,-2.421 -2.621,-3.215 -2.131,-3.856C-1.641,-4.497 -0.93,-4.909 -0.13,-5.016C0.67,-5.122 1.463,-4.911 2.105,-4.421C2.746,-3.931 3.158,-3.221 3.265,-2.42C3.371,-1.621 3.16,-0.827 2.67,-0.186C2.18,0.456 1.469,0.868 0.669,0.974" style="fill:rgb(98,37,117);fill-rule:nonzero;"/>
            </g>
            <g transform="matrix(0.607349,-0.794435,-0.794435,-0.607349,61.3029,11.7816)">
                <path d="M-1.171,-0.579C-1.986,-0.579 -2.646,0.081 -2.647,0.896C-2.646,1.711 -1.986,2.37 -1.171,2.371C-0.357,2.371 0.303,1.71 0.304,0.896C0.304,0.082 -0.357,-0.579 -1.171,-0.579" style="fill:rgb(249,187,49);fill-rule:nonzero;"/>
            </g>
            <g transform="matrix(1,0,0,1,61.0511,11.7062)">
                <path d="M0,1.356C-0.496,2.004 -1.419,2.128 -2.068,1.632C-2.712,1.139 -2.839,0.213 -2.344,-0.436C-2.239,-0.572 -2.114,-0.687 -1.975,-0.772C-2.164,-0.193 -1.978,0.463 -1.47,0.851C-0.959,1.242 -0.277,1.249 0.228,0.912C0.183,1.069 0.105,1.219 0,1.356" style="fill:rgb(234,112,33);fill-rule:nonzero;"/>
            </g>
            <g transform="matrix(1,0,0,1,59.7498,12.9605)">
                <path d="M0,-1.767C-0.26,-1.732 -0.492,-1.598 -0.651,-1.389C-0.981,-0.959 -0.898,-0.341 -0.467,-0.011C-0.05,0.308 0.592,0.222 0.911,-0.195C1.071,-0.404 1.139,-0.662 1.105,-0.922C1.07,-1.183 0.936,-1.414 0.727,-1.573C0.518,-1.733 0.26,-1.802 0,-1.767M0.39,1.157C-0.13,1.226 -0.647,1.089 -1.064,0.77C-1.926,0.111 -2.091,-1.125 -1.432,-1.987C-0.794,-2.822 0.49,-2.993 1.324,-2.355C1.742,-2.036 2.01,-1.573 2.079,-1.053C2.149,-0.532 2.011,-0.015 1.692,0.402C1.373,0.819 0.911,1.087 0.39,1.157" style="fill:rgb(98,37,117);fill-rule:nonzero;"/>
            </g>
            <g transform="matrix(1,0,0,1,56.164,14.0592)">
                <path d="M0,3.38L-1.562,2.186C-1.746,2.045 -1.808,1.794 -1.709,1.584L-0.956,0L0.606,1.195L-0.147,2.779C-0.245,2.988 -0.184,3.24 0,3.38" style="fill:rgb(179,22,66);fill-rule:nonzero;"/>
            </g>
            <g transform="matrix(1,0,0,1,55.3919,17.4268)">
                <path d="M0,-2.609L-0.491,-1.574L2.238,0.512L1.939,0.903L2.238,0.512L3.108,-0.233L0,-2.609ZM2.369,1.485C2.117,1.519 1.853,1.456 1.64,1.293L-1.088,-0.792C-1.454,-1.073 -1.577,-1.578 -1.379,-1.995L-0.368,-4.128L4.67,-0.276L2.877,1.259C2.73,1.385 2.552,1.461 2.369,1.485" style="fill:rgb(98,37,117);fill-rule:nonzero;"/>
            </g>
            <g transform="matrix(1,0,0,1,55.3558,22.4008)">
                <path d="M0,-1.225C-0.63,-0.401 -4.197,2.881 -5.021,2.251C-5.846,1.621 -3.614,-2.682 -2.984,-3.506C-2.772,-3.784 -2.501,-3.985 -2.198,-4.106C-2.978,-2.543 -3.777,-0.51 -3.23,-0.092C-2.683,0.326 -0.932,-0.978 0.372,-2.141C0.335,-1.817 0.212,-1.502 0,-1.225" style="fill:rgb(234,112,33);fill-rule:nonzero;"/>
            </g>
            <g transform="matrix(0.607393,-0.794402,-0.794402,-0.607393,54.8249,18.6932)">
                <path d="M-0.696,-1.669C-2.412,-1.34 -4.511,-0.741 -4.511,-0.052C-4.512,0.636 -2.411,1.236 -0.696,1.566C-0.141,1.237 0.229,0.637 0.228,-0.051C0.229,-0.739 -0.141,-1.34 -0.696,-1.669" style="fill:rgb(249,187,49);fill-rule:nonzero;"/>
            </g>
            <g transform="matrix(1,0,0,1,50.6476,18.3665)">
                <path d="M0,5.878C0.76,5.87 3.61,3.44 4.32,2.511C4.545,2.217 4.642,1.853 4.593,1.485C4.544,1.118 4.355,0.792 4.06,0.567C3.453,0.103 2.58,0.219 2.116,0.826C1.406,1.755 -0.189,5.138 0,5.878M0.132,6.846C-0.168,6.886 -0.412,6.829 -0.611,6.677C-2.056,5.572 1.296,0.279 1.334,0.229C2.128,-0.809 3.619,-1.008 4.657,-0.214C5.16,0.17 5.484,0.728 5.567,1.355C5.651,1.983 5.486,2.605 5.101,3.109C4.744,3.575 3.645,4.639 2.576,5.48C1.506,6.321 0.714,6.768 0.132,6.846" style="fill:rgb(98,37,117);fill-rule:nonzero;"/>
            </g>
            <g transform="matrix(1,0,0,1,52.8416,18.2297)">
                <path d="M0,3.145L2.575,0.629L1.753,0L0,3.145Z" style="fill:rgb(98,37,117);fill-rule:nonzero;"/>
            </g>
            <g transform="matrix(1,0,0,1,69.8099,14.7774)">
                <path d="M0,-1.047L0.915,-0.927C1.133,-0.898 1.173,-0.599 0.97,-0.514L0.119,-0.158C0.048,-0.129 -0.002,-0.063 -0.012,0.013L-0.132,0.927C-0.161,1.146 -0.46,1.186 -0.545,0.983L-0.901,0.132C-0.931,0.061 -0.996,0.011 -1.072,0.001L-1.987,-0.119C-2.206,-0.148 -2.245,-0.447 -2.042,-0.533L-1.191,-0.888C-1.12,-0.918 -1.07,-0.983 -1.06,-1.059L-0.94,-1.974C-0.911,-2.193 -0.612,-2.233 -0.527,-2.029L-0.171,-1.178C-0.142,-1.107 -0.076,-1.057 0,-1.047" style="fill:rgb(98,37,117);fill-rule:nonzero;"/>
            </g>
            <g transform="matrix(-77.7463,0,0,77.7463,155.185,17.1143)">
                <path d="M0.433,-0.019C0.442,-0.01 0.442,0.005 0.433,0.015C0.424,0.024 0.409,0.024 0.4,0.015C0.39,0.005 0.39,-0.01 0.4,-0.019C0.404,-0.024 0.41,-0.026 0.416,-0.026C0.423,-0.026 0.429,-0.024 0.433,-0.019Z" style="fill:url(#_Linear5);fill-rule:nonzero;"/>
            </g>
            <g transform="matrix(-77.7463,0,0,77.7463,155.185,23.488)">
                <path d="M0.632,-0.152L0.632,-0.003C0.636,-0.009 0.641,-0.015 0.646,-0.02C0.665,-0.039 0.689,-0.049 0.716,-0.049C0.744,-0.049 0.767,-0.04 0.787,-0.02C0.795,-0.012 0.801,-0.004 0.805,0.005C0.809,-0.009 0.816,-0.02 0.825,-0.029C0.842,-0.044 0.862,-0.052 0.884,-0.052C0.906,-0.052 0.926,-0.044 0.942,-0.029C0.959,-0.044 0.978,-0.052 1,-0.052C1.023,-0.052 1.043,-0.044 1.059,-0.029C1.076,-0.013 1.084,0.01 1.084,0.041L1.084,0.145L1.033,0.145L1.033,0.041C1.033,0.013 1.021,-0.002 1,-0.002C0.981,-0.002 0.969,0.012 0.968,0.036L0.968,0.041L0.968,0.141L0.968,0.145L0.916,0.145L0.916,0.041L0.917,0.037C0.915,0.012 0.904,-0.002 0.884,-0.002C0.863,-0.002 0.852,0.013 0.852,0.041L0.852,0.145L0.8,0.145L0.8,0.105C0.797,0.111 0.792,0.116 0.787,0.121C0.767,0.141 0.744,0.15 0.716,0.15C0.689,0.15 0.666,0.14 0.646,0.121C0.637,0.112 0.63,0.102 0.625,0.092C0.62,0.105 0.613,0.116 0.603,0.125C0.583,0.143 0.559,0.152 0.532,0.152C0.504,0.152 0.481,0.142 0.462,0.122C0.453,0.114 0.446,0.104 0.441,0.094L0.441,0.146L0.392,0.146L0.392,-0.051L0.441,-0.051L0.441,0.01C0.446,-0 0.453,-0.01 0.461,-0.018C0.48,-0.038 0.504,-0.048 0.532,-0.048C0.543,-0.048 0.553,-0.046 0.563,-0.043C0.572,-0.04 0.578,-0.037 0.581,-0.035L0.581,-0.152L0.632,-0.152ZM0.751,0.087C0.761,0.077 0.765,0.065 0.765,0.05C0.765,0.036 0.761,0.024 0.751,0.015C0.742,0.005 0.73,0 0.716,0C0.702,0 0.691,0.005 0.682,0.015C0.672,0.024 0.667,0.035 0.667,0.05C0.667,0.065 0.672,0.077 0.682,0.087C0.691,0.096 0.703,0.101 0.716,0.101C0.73,0.101 0.742,0.096 0.751,0.087ZM0.581,0.052C0.581,0.023 0.56,0.002 0.532,0.002C0.505,0.002 0.483,0.023 0.483,0.052C0.483,0.081 0.505,0.102 0.532,0.102C0.561,0.102 0.581,0.081 0.581,0.052Z" style="fill:url(#_Linear6);fill-rule:nonzero;"/>
            </g>
            <g transform="matrix(77.7463,0,0,-77.7463,99.5917,23.3036)">
                <rect x="0.332" y="-0.149" width="0.051" height="0.298" style="fill:url(#_Linear7);"/>
            </g>
            <g transform="matrix(-77.7463,0,0,77.7463,155.185,23.2999)">
                <path d="M0.264,-0.149L0.264,0.07C0.264,0.121 0.237,0.149 0.187,0.149L0.174,0.149L0.174,0.1L0.187,0.1C0.205,0.1 0.213,0.09 0.213,0.07L0.213,-0.05L0.177,-0.05L0.177,-0.1L0.213,-0.1L0.213,-0.149L0.264,-0.149Z" style="fill:url(#_Linear8);fill-rule:nonzero;"/>
            </g>
            <g transform="matrix(77.7463,0,0,-77.7463,108.818,27.1903)">
                <rect x="0.274" y="-0.099" width="0.049" height="0.198" style="fill:url(#_Linear9);"/>
            </g>
            <g transform="matrix(-77.7463,0,0,77.7463,155.185,31.5719)">
                <path d="M0.051,-0.152L0.051,-0.047C0.051,-0.02 0.062,-0.004 0.083,-0.004C0.104,-0.004 0.116,-0.02 0.116,-0.047L0.116,-0.152L0.167,-0.152L0.167,-0.047C0.167,-0.016 0.159,0.007 0.142,0.022C0.126,0.037 0.106,0.045 0.083,0.045C0.072,0.045 0.061,0.043 0.051,0.039L0.051,0.063C0.051,0.079 0.056,0.105 0.084,0.105C0.11,0.105 0.12,0.083 0.12,0.064L0.121,0.06L0.172,0.06L0.172,0.064C0.171,0.09 0.163,0.112 0.146,0.128C0.129,0.144 0.108,0.152 0.083,0.152C0.034,0.152 0.002,0.118 -0,0.066L-0.001,0.066L-0.001,-0.152L0.051,-0.152Z" style="fill:url(#_Linear10);fill-rule:nonzero;"/>
            </g>
            <g transform="matrix(-77.7463,0,0,77.7463,155.185,17.1143)">
                <path d="M0.315,-0.019C0.324,-0.01 0.324,0.005 0.315,0.015C0.306,0.024 0.291,0.024 0.281,0.015C0.272,0.005 0.272,-0.01 0.281,-0.019C0.286,-0.024 0.292,-0.026 0.298,-0.026C0.304,-0.026 0.31,-0.024 0.315,-0.019Z" style="fill:url(#_Linear11);fill-rule:nonzero;"/>
            </g>
        </g>
    </g>
    <defs>
        <linearGradient id="_Linear2" x1="0" y1="0" x2="1" y2="0" gradientUnits="userSpaceOnUse" gradientTransform="matrix(1,3.46945e-18,3.46945e-18,-1,0,-0.00450708)"><stop offset="0" style="stop-color:rgb(122,59,137);stop-opacity:1"/><stop offset="1" style="stop-color:rgb(98,37,117);stop-opacity:1"/></linearGradient>
        <linearGradient id="_Linear3" x1="0" y1="0" x2="1" y2="0" gradientUnits="userSpaceOnUse" gradientTransform="matrix(1,0,0,-1,0,-0.025198)"><stop offset="0" style="stop-color:rgb(179,22,65);stop-opacity:1"/><stop offset="1" style="stop-color:rgb(225,49,33);stop-opacity:1"/></linearGradient>
        <linearGradient id="_Linear4" x1="0" y1="0" x2="1" y2="0" gradientUnits="userSpaceOnUse" gradientTransform="matrix(1,3.46945e-18,3.46945e-18,-1,0,0.00021898)"><stop offset="0" style="stop-color:rgb(122,59,137);stop-opacity:1"/><stop offset="1" style="stop-color:rgb(98,37,117);stop-opacity:1"/></linearGradient>
        <linearGradient id="_Linear5" x1="0" y1="0" x2="1" y2="0" gradientUnits="userSpaceOnUse" gradientTransform="matrix(1,0,0,-1,0,-0.00231222)"><stop offset="0" style="stop-color:rgb(179,22,65);stop-opacity:1"/><stop offset="1" style="stop-color:rgb(225,49,33);stop-opacity:1"/></linearGradient>
        <linearGradient id="_Linear6" x1="0" y1="0" x2="1" y2="0" gradientUnits="userSpaceOnUse" gradientTransform="matrix(1,0,0,-1,0,9.79597e-06)"><stop offset="0" style="stop-color:rgb(179,22,65);stop-opacity:1"/><stop offset="1" style="stop-color:rgb(225,49,33);stop-opacity:1"/></linearGradient>
        <linearGradient id="_Linear7" x1="0" y1="0" x2="1" y2="0" gradientUnits="userSpaceOnUse" gradientTransform="matrix(-1,0,-0,1,0.715065,0)"><stop offset="0" style="stop-color:rgb(179,22,65);stop-opacity:1"/><stop offset="1" style="stop-color:rgb(225,49,33);stop-opacity:1"/></linearGradient>
        <linearGradient id="_Linear8" x1="0" y1="0" x2="1" y2="0" gradientUnits="userSpaceOnUse" gradientTransform="matrix(1,0,0,-1,0,-1.08301e-06)"><stop offset="0" style="stop-color:rgb(179,22,65);stop-opacity:1"/><stop offset="1" style="stop-color:rgb(225,49,33);stop-opacity:1"/></linearGradient>
        <linearGradient id="_Linear9" x1="0" y1="0" x2="1" y2="0" gradientUnits="userSpaceOnUse" gradientTransform="matrix(-1,0,-0,1,0.596397,0)"><stop offset="0" style="stop-color:rgb(179,22,65);stop-opacity:1"/><stop offset="1" style="stop-color:rgb(225,49,33);stop-opacity:1"/></linearGradient>
        <linearGradient id="_Linear10" x1="0" y1="0" x2="1" y2="0" gradientUnits="userSpaceOnUse" gradientTransform="matrix(1,0,0,-1,0,-6.32828e-07)"><stop offset="0" style="stop-color:rgb(179,22,65);stop-opacity:1"/><stop offset="1" style="stop-color:rgb(225,49,33);stop-opacity:1"/></linearGradient>
        <linearGradient id="_Linear11" x1="0" y1="0" x2="1" y2="0" gradientUnits="userSpaceOnUse" gradientTransform="matrix(1,0,0,-1,0,-0.00231222)"><stop offset="0" style="stop-color:rgb(179,22,65);stop-opacity:1"/><stop offset="1" style="stop-color:rgb(225,49,33);stop-opacity:1"/></linearGradient>
    </defs>
</svg>
